<svg xmlns="http://www.w3.org/2000/svg" viewBox="0 0 540 170" fill="none"><defs><mask id="cut"><rect width="540" height="170" fill="white"/><path d="m213 10-30 147" stroke="black" stroke-width="9"/></mask></defs><g stroke="#e8d5a6" stroke-width="3" mask="url(#cut)"><path d="M17 137h40M28 137V31l42 65 43-65v106m-15 0h30M285 137h38M298 137V31l76 106V31m-15 0h30"/><ellipse cx="200" cy="84" rx="47" ry="60"/><ellipse cx="458" cy="84" rx="47" ry="60"/><path d="M142 84h116M400 84h116" stroke-width=".7"/><path d="M10 153h510M10 17h510" stroke-width=".6"/></g><path d="m214 10-30 147" stroke="#df747f" stroke-width="1"/><g fill="#b9ce9c"><path d="m200 0 4 7-4 7-4-7zm258 152 4 7-4 7-4-7z"/></g></svg>
